<?xml version="1.0" encoding="utf-8"?>
<!-- Generator: Adobe Illustrator 19.1.1, SVG Export Plug-In . SVG Version: 6.00 Build 0)  -->
<svg version="1.1" id="Layer_1" xmlns="http://www.w3.org/2000/svg" xmlns:xlink="http://www.w3.org/1999/xlink" x="0px" y="0px"
	 viewBox="0 0 400 400" style="enable-background:new 0 0 400 400;" xml:space="preserve">
<style type="text/css">
	.st0{fill:#523229;stroke:#000000;stroke-miterlimit:10;}
</style>
<g>
	<g>
		<path class="st0" d="M70.7,153.3c-1.9,18.3-3.7,36.6-6.1,54.9c-2.2,17.1-2.9,34.6-6.3,51.5c-6.2,31.9-30,51.5-53.6,71.3
			c-2.6,2.2-0.4,6.7,2.7,6.6c25.5-0.2,51.1-0.6,76.6-0.7c25.3-0.2,51.1-1.5,76.3,1c12.6,1.3,24.8,4.4,37.2,6.6
			c11.9,2.1,24,3.1,36.1,2.9c25.3-0.4,50.6-4.2,75.7-7.1c28.3-3.4,56.4-7.5,84.6-11.9c2.7-0.4,3.2-4.7,0.8-5.9
			c-3.8-1.8-8-3-11.4-5.5c-2.9-2.2-5.7-5-8.4-7.5c-5.3-5-10.1-10.4-14.2-16.5c-9.2-13.7-14.5-29.2-17.2-45.5
			c-3-18.4-3.8-37.4-5.3-56c-1.6-18.9-2.3-37.8-3.7-56.8c-0.4-5.1-8.3-5.1-7.9,0c1.5,20.1,3.6,40.2,5,60.4
			c1.3,19.6,1.6,39.7,5.1,59.1c2.9,16.1,9.2,30.7,19.2,43.7c4.8,6.2,10.2,11.9,16.4,16.8c2.7,2.1,5.5,3.8,8.4,5.6
			c3.7,2.4,6.9,5.5,10.8,7.7c0.5-2,1.1-4,1.6-6c-25.5,1.8-50.9,3.8-76.3,6.4c-24.8,2.5-49.7,6.3-74.6,7.9
			c-12.8,0.8-25.7,0.9-38.4-0.9c-11.7-1.6-23.1-4.4-34.9-5.7c-24.8-2.9-50-1.3-74.9-0.8c-28.8,0.6-57.7,0.7-86.5,1.1
			c0.9,2.2,1.8,4.4,2.7,6.6c23.2-19.4,47.6-42.2,55.1-72.6c4.2-16.9,5.1-35,6.8-52.3c1.9-19.5,3.9-38.9,6.1-58.4
			C78.9,148.5,71.2,148.5,70.7,153.3L70.7,153.3z"/>
	</g>
	<g>
		<path class="st0" d="M57.9,141.6c2.7,10.2,12.5,14.5,22.4,15.3c14.8,1.3,30.5-0.9,45.2-1.9c28.5-1.8,58.6-6.2,86.7,0.5
			c13.3,3.2,26.1,10,40,9.5c11.1-0.4,20.8-5.8,30.3-11.1c5-2.8,10.1-5.7,15.6-7.6c5.7-2,11.3-2.1,17.3-2.5c9.5-0.5,19.7-2.9,23-13.1
			c4-12.5-4.8-23.9-4.3-36.3c0.5-11.7,7.5-22,4.8-34c-2.2-9.6-9.6-15.7-19.6-14.7c-6,0.6-11.6,3.2-17.4,4.7
			c-7.8,2-15.7,3.3-23.7,4.1c-28.7,2.9-57.9,5.1-86.7,4c-15.3-0.6-30.5-2.1-45.4-5.6c-14-3.3-27.5-8.2-41.6-11.2
			c-11.4-2.4-26.8-5.5-37.7,0.2C55.3,48.2,57.3,66.1,56.2,77c-0.8,8.3-1.6,16.7-2.4,25c-0.8,8.3-2.1,16.6-1.5,24.9
			c0.9,11.8,5.8,23.4,16.5,29.3c3.6,2,6.9-3.6,3.2-5.5C61,145,57.8,132.7,57.9,121c0.1-13.1,2.5-26.3,4-39.3
			c0.7-6,1.4-11.9,2.1-17.9c0.8-6.7,0.8-14.1,8.5-16.4c11-3.2,24.7,0.4,35.3,3.3c12,3.3,23.8,7.6,35.9,10.6
			c11.8,2.8,23.8,4.5,35.9,5.4c25.1,1.8,50.4-0.4,75.4-2.7c11.8-1.1,23.5-2.1,35.2-4c6-0.9,12-2.1,17.8-3.8
			c5.8-1.7,13.6-5.6,19.2-1.7c9.3,6.5,3.4,21.1,1.2,29.6c-1.3,4.9-2.1,9.9-1.5,14.9c0.7,6,3.1,11.5,4.3,17.3
			c1.1,5.2,1.2,11.5-2.8,15.5c-3.9,3.8-10,3.8-15.1,4.1c-9.4,0.5-17.6,2.1-26.1,6.3c-9,4.4-17.3,10.6-27,13.4
			c-12.2,3.6-23.8-0.9-35.4-4.6c-26.6-8.7-54.1-6.8-81.6-5c-14.4,1-28.8,2-43.1,3.1c-13.1,1-31.4,4.9-39.2-9
			C60.1,138.4,57.4,139.6,57.9,141.6L57.9,141.6z"/>
	</g>
</g>
</svg>
